Coordinates
version=1
nRows=7
nColumns=40
inDegrees=yes

Units are S.I. units (second, meters, Newtons, ...)
Angles are in degrees.

endheader
time	pelvis_tilt	pelvis_list	pelvis_rotation	pelvis_tx	pelvis_ty	pelvis_tz	hip_flexion_r	hip_adduction_r	hip_rotation_r	knee_angle_r	knee_angle_r_beta	ankle_angle_r	subtalar_angle_r	mtp_angle_r	hip_flexion_l	hip_adduction_l	hip_rotation_l	knee_angle_l	knee_angle_l_beta	ankle_angle_l	subtalar_angle_l	mtp_angle_l	lumbar_extension	lumbar_bending	lumbar_rotation	arm_flex_r	arm_add_r	arm_rot_r	elbow_flex_r	pro_sup_r	wrist_flex_r	wrist_dev_r	arm_flex_l	arm_add_l	arm_rot_l	elbow_flex_l	pro_sup_l	wrist_flex_l	wrist_dev_l
     57.44000000	     -5.58251265	     -4.22858787	      1.51087287	      1.08972471	      0.92957786	      0.44027159	     29.39485751	     -7.62596576	     -7.38220691	     71.79630756	     71.79630756	      2.16628581	    -16.79914840	      1.35287952	     17.84023639	     -4.62607531	     -9.27731739	     22.65759460	     22.65759460	     13.10995491	     -8.18381218	     -0.46600163	     -9.67530877	      6.72352541	      1.29941532	     11.93796377	    -12.44647802	     -9.16744594	     60.51494824	     45.33056097	      0.00000000	      0.00000000	     14.72528042	    -11.65340864	      3.77798738	     38.96661868	     45.73128944	      0.00000000	      0.00000000
     57.45128571	     -5.54464750	     -4.25607441	      0.89069358	      1.08866066	      0.93070014	      0.44015559	     31.05836638	     -7.40601775	     -6.93884574	     71.31963344	     71.31963344	      2.12755862	    -16.46067209	      1.16226210	     16.63596685	     -4.65454788	     -9.67149637	     21.78242463	     21.78242463	     13.36046925	     -8.25441546	     -0.36656095	     -9.99231579	      6.85864340	      1.93803430	      9.80812408	    -12.71651330	     -9.04863842	     57.66153383	     45.41811121	      0.00000000	      0.00000000	     16.77315470	    -11.99761559	      3.63000396	     40.12324395	     45.78673013	      0.00000000	      0.00000000
     57.46257143	     -5.45525243	     -4.30153708	      0.26192923	      1.08764109	      0.93180255	      0.44011734	     32.53357096	     -7.11744309	     -6.52919972	     70.62866657	     70.62866657	      2.01935048	    -16.09604010	      0.99069291	     15.36851492	     -4.70451402	    -10.16031797	     20.88324716	     20.88324716	     13.56688017	     -8.20702778	     -0.41446481	    -10.37803623	      6.99429406	      2.57294265	      8.16101825	    -12.91707223	     -9.03806330	     53.81529849	     45.54796999	      0.00000000	      0.00000000	     18.74265101	    -12.37176528	      3.59920355	     41.45847205	     45.83012983	      0.00000000	      0.00000000
     57.47385714	     -5.43765110	     -4.40908485	     -0.23768620	      1.08663600	      0.93263460	      0.44005283	     33.89622103	     -6.82321728	     -6.34393026	     69.66137804	     69.66137804	      1.82011116	    -15.71277568	      0.68501736	     14.27592845	     -4.78905616	    -10.51059287	     20.08878667	     20.08878667	     13.55198646	     -8.28758235	     -1.04722683	    -10.48586723	      7.19007586	      1.89150949	      8.80972286	    -12.13599237	     -9.49739863	     45.64395318	     45.86506914	      0.00000000	      0.00000000	     19.86005540	    -13.63320769	      4.04393712	     43.05412161	     45.83689724	      0.00000000	      0.00000000
     57.48514286	     -5.34587501	     -4.44148512	     -0.77321834	      1.08568020	      0.93343444	      0.44002866	     35.06861247	     -6.51403809	     -6.04472745	     68.42132234	     68.42132234	      1.69734159	    -15.29547676	      0.78441050	     13.01099577	     -4.77201343	    -10.97014826	     19.13945563	     19.13945563	     13.76452750	     -8.13556363	     -1.02776807	    -10.89618526	      7.34206565	      2.46629867	      6.93821226	    -12.37613019	     -9.47422526	     43.14018220	     45.94522060	      0.00000000	      0.00000000	     21.60139504	    -14.02106118	      3.74773580	     44.65675282	     45.90679886	      0.00000000	      0.00000000
     57.49642857	     -5.34353109	     -4.51139404	     -1.22077955	      1.08469094	      0.93389646	      0.44005340	     36.15186504	     -6.21407073	     -5.90819238	     66.82636934	     66.82636934	      1.60136874	    -14.73771304	      0.83440903	     11.96634294	     -4.79635019	    -11.33724482	     18.36565458	     18.36565458	     13.73248333	     -8.14478001	     -1.71589765	    -11.06277617	      7.50701164	      1.86022134	      7.48310338	    -11.86769532	    -10.19225082	     35.91792434	     46.25239973	      0.00000000	      0.00000000	     22.33908326	    -15.28124472	      3.51177403	     47.18146847	     45.99646765	      0.00000000	      0.00000000
     57.50771429	     -5.32295994	     -4.56093389	     -1.64147487	      1.08379040	      0.93425067	      0.44008134	     37.02803149	     -5.92465333	     -5.80348015	     64.82504267	     64.82504267	      1.52810895	    -14.07967917	      0.95837598	     10.86670071	     -4.77655263	    -11.71449824	     17.54094332	     17.54094332	     13.96911474	     -7.95255239	     -1.73256924	    -11.34622492	      7.69010006	      2.27848786	      5.60384862	    -12.11039201	    -10.31184657	     33.97658693	     46.32198270	      0.00000000	      0.00000000	     23.92366953	    -15.64467808	      3.08769730	     48.71763911	     46.07443165	      0.00000000	      0.00000000
